<svg xmlns="http://www.w3.org/2000/svg" viewBox="0 0 430 430">
  <defs>
    <style>
      .cls-1 {
        isolation: isolate;
      }

      .cls-2 {
        fill: #ffc738;
      }

      .cls-3 {
        fill: #3a3347;
      }

      .cls-4 {
        fill: #121331;
      }

      .cls-5 {
        fill: #ebe6ef;
      }

      .cls-6 {
        fill: #4bb3fd;
      }

      .cls-7 {
        fill: #4bb3fd;
      }

      .cls-7 {
        mix-blend-mode: multiply;
        opacity: 0.5;
      }
    </style>
  </defs>
  <g class="cls-1">
    <g id="Warstwa_1" data-name="Warstwa 1">
      <g>
        <path class="cls-2" d="M342.38,135.55l24.56,5.22A17.06,17.06,0,0,1,380.08,161l-2.4,11.26L371,203.53l-28.27,133a17,17,0,0,1-20.22,13.13L69.47,295.87a17.18,17.18,0,0,1-6.21-2.69h0"/>
        <polyline class="cls-3" points="342.38 197.44 371.03 203.53 377.68 172.25 342.38 164.75"/>
        <path class="cls-4" d="M192.18,259.9h0a3.5,3.5,0,1,1,3.51-3.5A3.49,3.49,0,0,1,192.16,259.9Z"/>
        <polyline class="cls-5" fill="#ebe6ef" points="274.86 293.51 272.93 302.76 314.33 311.56 318.13 293.51"/>
        <rect class="cls-6" x="49.55" y="79.96" width="292.83" height="213.56" rx="17.05"/>
        <path class="cls-7" d="M64.25,276.47V97A17,17,0,0,1,81.3,80H66.6A17,17,0,0,0,49.55,97V276.47a17.05,17.05,0,0,0,17,17H81.3A17.05,17.05,0,0,1,64.25,276.47Z"/>
        <path class="cls-5" fill="#ebe6ef" d="M237.39,113a6.4,6.4,0,0,1-1.55-.2,6.28,6.28,0,0,1-4.55-7.64v0a6.3,6.3,0,1,1,6.09,7.88Z"/>
        <path class="cls-5" fill="#ebe6ef" d="M259.89,113.06a5.94,5.94,0,0,1-1.55-.2,6.28,6.28,0,0,1-4.55-7.64v0a6.3,6.3,0,1,1,6.09,7.88Z"/>
        <path class="cls-5" fill="#ebe6ef" d="M282.89,113.24a6.38,6.38,0,0,1-1.55-.19,6.3,6.3,0,0,1-4.55-7.65v0a6.3,6.3,0,1,1,6.09,7.88Z"/>
        <path class="cls-5" fill="#ebe6ef" d="M306.39,113.11a5.94,5.94,0,0,1-1.55-.2,6.28,6.28,0,0,1-4.55-7.64v0a6.3,6.3,0,1,1,6.09,7.88Z"/>
        <path class="cls-5" d="M79.57,259.91a3.5,3.5,0,0,1,0-7l27.51-.11h0a3.5,3.5,0,0,1,0,7l-27.51.11Z"/>
        <path class="cls-5" d="M157,259.84h0l-26.53,0a3.5,3.5,0,0,1,0-7h0l26.53,0a3.5,3.5,0,0,1,0,7Z"/>
        <path class="cls-5" d="M188.07,259.76a3.5,3.5,0,0,1,0-7l27.51-.12h0a3.5,3.5,0,0,1,0,7l-27.51.12Z"/>
        <path class="cls-5" d="M265.49,259.68h0l-26.53,0a3.5,3.5,0,0,1,0-7h0l26.53,0a3.5,3.5,0,0,1,0,7Z"/>
        <path class="cls-5" d="M79.57,229.76a3.5,3.5,0,0,1,0-7l27.51-.12h0a3.5,3.5,0,0,1,0,7l-27.51.12Z"/>
        <path class="cls-5" d="M214.49,229.87h0l-26.53,0a3.5,3.5,0,0,1,0-7h0l26.53,0a3.5,3.5,0,0,1,0,7Z"/>
        <path class="cls-5" fill="#ebe6ef" d="M83.88,107.05l.17,43.4h42.33l-.09-43.5Z"/>
        <path class="cls-4" d="M192.18,259.9h0a3.5,3.5,0,1,1,3.51-3.5A3.49,3.49,0,0,1,192.16,259.9Z"/>
        <path class="cls-4" d="M367.66,137.35l-21.78-4.63V97a20.57,20.57,0,0,0-20.55-20.55H66.6A20.57,20.57,0,0,0,46.05,97V276.47a20.57,20.57,0,0,0,15.84,20,20.63,20.63,0,0,0,6.85,2.85l253.07,53.79a21.06,21.06,0,0,0,4.32.45,20.55,20.55,0,0,0,20.05-16.28l28.27-133,9.05-42.54A20.59,20.59,0,0,0,367.66,137.35ZM66.6,290a13.61,13.61,0,0,1-2.65-.27l-.17,0a13.57,13.57,0,0,1-10.73-13.25V97A13.57,13.57,0,0,1,66.6,83.46H325.33A13.57,13.57,0,0,1,338.88,97v38.52h0v29.2h0v32.68h0v79.05A13.57,13.57,0,0,1,325.33,290H66.6Zm211.1,7h36.11l-2.19,10.39-34.56-7.35Zm61.63,38.79a13.53,13.53,0,0,1-16.07,10.43L91.68,297H270.55l-1.05,5a3.5,3.5,0,0,0,2.7,4.14l41.4,8.8a3.49,3.49,0,0,0,4.15-2.71L321,297h4.36a20.57,20.57,0,0,0,20.55-20.55v-74.7l21,4.46Zm29-136.43-22.46-4.77V169.07L373.53,175Zm8.31-39.12L375,168.1l-29.11-6.18v-22l20.33,4.32A13.57,13.57,0,0,1,376.65,160.26Z"/>
        <path class="cls-4" fill="#ebe6ef" d="M79.57,259.91a3.5,3.5,0,0,1,0-7l27.51-.11a3.5,3.5,0,0,1,0,7l-27.51.11Z"/>
        <path class="cls-4" fill="#ebe6ef" d="M157,259.84h0l-26.53,0a3.5,3.5,0,0,1,0-7h0l26.53,0a3.5,3.5,0,0,1,0,7Z"/>
        <path class="cls-4" fill="#ebe6ef" d="M188.07,259.76a3.5,3.5,0,0,1,0-7l27.51-.12a3.5,3.5,0,0,1,0,7l-27.51.12Z"/>
        <path class="cls-4" fill="#ebe6ef" d="M265.49,259.68h0l-26.53,0a3.5,3.5,0,0,1,0-7h0l26.53,0a3.5,3.5,0,0,1,0,7Z"/>
        <path class="cls-4" fill="#ebe6ef" d="M79.57,229.76a3.5,3.5,0,0,1,0-7l27.51-.12a3.5,3.5,0,0,1,0,7l-27.51.12Z"/>
        <path class="cls-4" fill="#ebe6ef" d="M214.49,229.87h0l-26.53,0a3.5,3.5,0,0,1,0-7h0l26.53,0a3.5,3.5,0,0,1,0,7Z"/>
        <path class="cls-4" d="M126.38,154H84.05a3.49,3.49,0,0,1-3.5-3.48l-.17-43.41a3.48,3.48,0,0,1,3.49-3.51l42.41-.1h0a3.5,3.5,0,0,1,3.5,3.5l.09,43.5a3.5,3.5,0,0,1-3.5,3.5Zm-38.85-7h35.34l-.07-36.49-35.41.08Z"/>
      </g>
    </g>
  </g>
</svg>